<svg xmlns="http://www.w3.org/2000/svg" width="291.42" height="58" viewBox="0 0 291.42 58">
    <g>
        <g>
            <g>
                <path fill="#123343" d="M225.626 177.135a18.14 18.14 0 0 1-5.512 10.565 27.9 27.9 0 0 1-8.929 5.753 38.247 38.247 0 0 1-8.207 2.264c-.456.08-.931.129-1.4.172-.2.086-.424 0-.62.083l-.646.032c-.316.1-.652-.03-.966.086h-4.039c-.314-.115-.652.013-.966-.086l-.646-.032c-.2-.094-.421 0-.62-.083a31.958 31.958 0 0 1-5.9-1.1 30.208 30.208 0 0 1-5.275-1.989 27.946 27.946 0 0 1-6.26-4.01 20.652 20.652 0 0 1-4.712-5.769 17.739 17.739 0 0 1-1.837-5.158 5.139 5.139 0 0 1-.043-.732c-.083-.2.019-.416-.083-.609v-2.454c.1-.193 0-.413.083-.606a13.946 13.946 0 0 1 1.553-5.294 18.666 18.666 0 0 1 2.4-3.642 24.063 24.063 0 0 1 3.315-3.3 27.276 27.276 0 0 1 6.072-3.664 35.6 35.6 0 0 1 8.03-2.457c.15-.027.3-.048.453-.072.091.212.091.448.193.657-.1.316-.4.434-.633.617-.611.472-1.231.933-1.851 1.395-1.2 1.073-2.309 2.226-3.42 3.382-.939.976-1.853 1.977-2.832 2.913-.292.268-.408.523-.118.853-.043.241-.252.327-.424.44-.738.48-1.44 1.014-2.175 1.5-1.32 1.2-2.575 2.459-3.779 3.755-.791.861-1.636 1.663-2.443 2.505-.485.507-.48.5.11.917 3.913 2.784 7.858 5.522 11.785 8.288q5.772 4.063 11.557 8.113a1.861 1.861 0 0 0 .5.284c.4 0 .652-.3.941-.507 4.433-3.138 8.891-6.244 13.343-9.374q4.879-3.436 9.768-6.858c.287-.2.536-.373.164-.743-2.073-1.987-3.964-4.152-6.035-6.139a2.128 2.128 0 0 0-.311-.268c-.856-.612-1.746-1.175-2.58-1.816.3-.536 0-.856-.376-1.218-1.843-1.8-3.556-3.731-5.418-5.517a4.519 4.519 0 0 0-.6-.536c-.8-.644-1.687-1.207-2.462-1.9-.032-.268.134-.472.156-.719a32.291 32.291 0 0 1 6.952 1.943 28.308 28.308 0 0 1 7.169 4.093 19.524 19.524 0 0 1 7.022 9.835 25.619 25.619 0 0 1 .558 2.537c.083.2-.019.416.083.609v2.454c-.107.191-.005.411-.089.607z" transform="translate(-168.96 -107.37) translate(168.96 113.666) translate(-168.96 -148.551)"/>
                <path fill="#e6253a" d="M280.8 137.385c.333.292.048.443-.139.614 0 .182-.161.252-.282.335-1.877 1.29-3.7 2.645-5.581 3.918-.233.158-.518.469-.684-.083a4.743 4.743 0 0 1-.072-1.03v-9.511a1.719 1.719 0 0 1 .078-.679c.268-.282.346.075.448.177 1.2 1.191 2.387 2.4 3.581 3.6.2.2.41.389.617.585a18.1 18.1 0 0 1 1.43 1.475 1.7 1.7 0 0 0 .604.599z" transform="translate(-168.96 -107.37) translate(168.96 113.666) translate(-245.854 -130.844)"/>
                <path fill="#d9123c" d="M256.685 131.24a1.279 1.279 0 0 1 .1.727v9.875c0 .255.123.52-.021.772-.217.107-.37-.04-.518-.145q-2.682-1.877-5.34-3.771a1 1 0 0 1-.432-.445.381.381 0 0 1-.252-.472.373.373 0 0 1 .1-.158l5.946-6.013a5.056 5.056 0 0 1 .417-.37z" transform="translate(-168.96 -107.37) translate(168.96 113.666) translate(-228.419 -131.134)"/>
                <path fill="#00984e" d="M292.145 198.48a41.719 41.719 0 0 1 3.1 3.06c1.073 1.14 2.175 2.264 3.3 3.353.432.416.3.6-.1.877q-3.218 2.239-6.437 4.5l-15.9 11.176c-.5.351-1 .7-1.507 1.046-.113.075-.215.241-.394.123a.925.925 0 0 1-.172-.6c0-3.543-.024-7.083 0-10.626a1.217 1.217 0 0 1 .024-.169.662.662 0 0 1 .341-.434c3.784-2.607 7.526-5.276 11.3-7.9q2.923-2.033 5.831-4.09a1.588 1.588 0 0 1 .609-.322z" transform="translate(-168.96 -107.37) translate(168.96 113.666) translate(-245.85 -180.34)"/>
                <path fill="#007865" d="M207.773 210.985V222.6a37.65 37.65 0 0 1-3.219-2.181c-2.39-1.644-4.75-3.336-7.121-5.007l-12.874-9.071a10.69 10.69 0 0 0-1.1-.732c-.33-.19-.268-.346-.043-.566.333-.316.652-.646.974-.974l5.061-5.166c.161-.161.343-.3.515-.448a16.454 16.454 0 0 1 2.379 1.585c3.017 2.1 6.021 4.211 9.033 6.311 1.963 1.368 3.9 2.779 5.876 4.12.198.139.436.254.519.514z" transform="translate(-168.96 -107.37) translate(168.96 113.666) translate(-179.405 -180.325)"/>
                <path fill="#f18c2d" d="M283.165 164.66c1.017.845 1.877 1.851 2.813 2.776 1.2 1.183 2.347 2.414 3.559 3.586.418.4.41.636-.054.915 0 .215-.188.268-.322.365-3.72 2.516-7.378 5.123-11.082 7.663-1.118.767-2.234 1.542-3.358 2.3-.241.164-.536.418-.671-.134-.07-2.433-.024-4.863-.027-7.3a29.9 29.9 0 0 1 .072-3.669c.027-.282.236-.418.443-.563 2.709-1.926 5.442-3.822 8.161-5.737a1.1 1.1 0 0 1 .466-.202z" transform="translate(-168.96 -107.37) translate(168.96 113.666) translate(-245.831 -155.59)"/>
                <path fill="#ec6b33" d="M232.35 170.929c.223.37 0 .743 0 1.113.019 3.422 0 6.847 0 10.27-.287.08-.472-.118-.668-.268q-4.559-3.143-9.095-6.3c-1.582-1.105-3.17-2.2-4.769-3.283a1.706 1.706 0 0 1-.668-.611c-.429-.247-.437-.459-.062-.831 2.022-2.009 4.023-4.053 6.016-6.083a5.062 5.062 0 0 1 .394-.325 5.249 5.249 0 0 1 1.491.933c2.146 1.513 4.318 3.009 6.464 4.533.331.248.747.415.897.852z" transform="translate(-168.96 -107.37) translate(168.96 113.666) translate(-203.982 -155.554)"/>
                <path fill="#00b463" d="M210.94 191.65l7.55 5.19 7.3 5.056c.113.07.228.137.346.2.268.07.4-.156.577-.268q7.185-4.964 14.365-9.937c.107-.075.228-.131.343-.2l2.642 1.794a24.273 24.273 0 0 1-2.618 1.92q-7.408 5.222-14.84 10.4a2.5 2.5 0 0 1-.469.2c-1.647-1.137-3.3-2.266-4.938-3.412l-6.461-4.535-6.268-4.4a.737.737 0 0 1-.142-.174z" transform="translate(-168.96 -107.37) translate(168.96 113.666) translate(-197.771 -175.342)"/>
                <path fill="#fdca0e" d="M250.581 165.645q-2.915-2.068-5.836-4.133c-1.011-.719-2.012-1.448-3.015-2.172l2.535-1.95 5.667 3.961c.2.142.413.268.622.4.236.19.341-.067.472-.158 1.794-1.25 3.581-2.51 5.364-3.755.2-.142.413-.268.622-.4l2.526 1.915c-.877.764-1.877 1.36-2.819 2.036-1.934 1.389-3.894 2.741-5.844 4.109a3.044 3.044 0 0 1-.294.147z" transform="translate(-168.96 -107.37) translate(168.96 113.666) translate(-222.213 -150.27)"/>
            </g>
        </g>
        <text fill="#3b3b3b" font-family="SFProDisplay-Medium, SF Pro Display" font-size="48px" font-weight="500" transform="translate(-168.96 -107.37) translate(240.38 153.37)">
            <tspan x="0" y="0">P</tspan><tspan y="0" letter-spacing="-0.02em">r</tspan><tspan y="0" letter-spacing="-0.01em">o</tspan><tspan y="0">ys</tspan><tspan y="0" font-family="SFProDisplay-Light, SF Pro Display" font-weight="300" letter-spacing="-0.04em">P</tspan><tspan y="0" font-family="SFProDisplay-Light, SF Pro Display" font-weight="300">anel</tspan>
        </text>
    </g>
</svg>
