<svg xmlns="http://www.w3.org/2000/svg" width="198.273" height="39" viewBox="0 0 198.273 39">
    <g>
        <g>
            <g>
                <path fill="#123343" d="M205.674 169.355a11.753 11.753 0 0 1-3.574 6.845 18.073 18.073 0 0 1-5.785 3.727 24.779 24.779 0 0 1-5.315 1.467c-.3.052-.6.083-.905.111-.129.056-.275 0-.4.054l-.419.021c-.205.064-.422-.019-.626.056h-2.617c-.2-.075-.422.009-.626-.056l-.419-.021c-.129-.061-.273 0-.4-.054a20.706 20.706 0 0 1-3.823-.714 19.573 19.573 0 0 1-3.423-1.284 18.106 18.106 0 0 1-4.056-2.6 13.38 13.38 0 0 1-3.053-3.738 11.493 11.493 0 0 1-1.19-3.342 3.33 3.33 0 0 1-.028-.474c-.054-.127.012-.269-.054-.394v-1.59c.066-.125 0-.268.054-.393a9.036 9.036 0 0 1 1.006-3.43 12.094 12.094 0 0 1 1.553-2.36 15.589 15.589 0 0 1 2.148-2.136 17.671 17.671 0 0 1 3.934-2.374 23.066 23.066 0 0 1 5.2-1.592c.1-.017.2-.031.294-.047.059.137.059.29.125.426-.064.205-.261.282-.41.4-.4.306-.8.6-1.2.9-.778.7-1.5 1.442-2.216 2.191-.608.633-1.2 1.281-1.835 1.887-.189.174-.264.339-.076.553-.028.156-.163.212-.275.285-.478.311-.933.657-1.409.971-.855.775-1.668 1.593-2.448 2.433-.513.558-1.06 1.077-1.583 1.623-.315.328-.311.323.071.594 2.535 1.8 5.091 3.578 7.635 5.369q3.74 2.633 7.488 5.257a1.206 1.206 0 0 0 .321.184c.259 0 .422-.2.61-.328 2.872-2.033 5.76-4.045 8.645-6.073q3.161-2.226 6.329-4.443c.186-.13.348-.242.106-.481-1.343-1.288-2.568-2.69-3.91-3.978a1.378 1.378 0 0 0-.2-.174c-.554-.4-1.131-.761-1.672-1.176.2-.348 0-.554-.243-.789-1.194-1.168-2.3-2.417-3.51-3.574a2.93 2.93 0 0 0-.386-.348c-.521-.417-1.093-.782-1.6-1.232-.021-.174.087-.306.1-.466a20.922 20.922 0 0 1 4.508 1.255 18.34 18.34 0 0 1 4.645 2.652 12.649 12.649 0 0 1 4.549 6.372 16.6 16.6 0 0 1 .361 1.644c.054.127-.012.269.054.394v1.59c-.062.131.004.273-.05.4z" transform="translate(-168.96 -107.37) translate(168.96 111.449) translate(-168.96 -150.836)"/>
                <path fill="#e6253a" d="M278.419 135.082c.215.189.031.287-.09.4 0 .118-.1.163-.182.217-1.216.836-2.4 1.713-3.616 2.539-.151.1-.335.3-.443-.054a3.07 3.07 0 0 1-.047-.667v-6.162a1.113 1.113 0 0 1 .05-.44c.174-.182.224.049.29.115.778.772 1.547 1.553 2.32 2.332.129.13.266.252.4.379a11.728 11.728 0 0 1 .926.956 1.1 1.1 0 0 0 .392.385z" transform="translate(-168.96 -107.37) translate(168.96 111.449) translate(-255.777 -130.844)"/>
                <path fill="#d9123c" d="M254.406 131.24a.829.829 0 0 1 .068.471v6.4c0 .165.08.337-.014.5-.141.07-.24-.026-.335-.094q-1.738-1.216-3.46-2.443a.65.65 0 0 1-.28-.288.247.247 0 0 1-.163-.306.242.242 0 0 1 .063-.1l3.852-3.9a3.269 3.269 0 0 1 .269-.24z" transform="translate(-168.96 -107.37) translate(168.96 111.449) translate(-236.092 -131.171)"/>
                <path fill="#00984e" d="M285.766 198.48a27.031 27.031 0 0 1 2.009 1.983c.7.739 1.409 1.467 2.139 2.172.28.269.193.391-.063.568q-2.085 1.451-4.17 2.918l-10.3 7.241c-.325.228-.648.455-.977.678-.073.049-.139.156-.255.08a.6.6 0 0 1-.111-.386c0-2.3-.016-4.589 0-6.885a.787.787 0 0 1 .016-.109.429.429 0 0 1 .221-.282c2.452-1.689 4.876-3.418 7.321-5.119q1.894-1.317 3.778-2.65a1.029 1.029 0 0 1 .394-.209z" transform="translate(-168.96 -107.37) translate(168.96 111.449) translate(-255.772 -186.727)"/>
                <path fill="#007865" d="M199.133 206.575v7.525a24.393 24.393 0 0 1-2.085-1.413c-1.548-1.065-3.077-2.162-4.614-3.244l-8.341-5.877a6.924 6.924 0 0 0-.711-.474c-.214-.123-.174-.224-.028-.367.215-.205.422-.419.631-.631l3.279-3.347c.1-.1.222-.195.334-.29a10.661 10.661 0 0 1 1.541 1.027c1.955 1.359 3.9 2.728 5.853 4.089 1.272.886 2.525 1.8 3.807 2.669.125.09.28.164.334.333z" transform="translate(-168.96 -107.37) translate(168.96 111.449) translate(-180.753 -186.71)"/>
                <path fill="#f18c2d" d="M279.94 164.66c.659.547 1.216 1.2 1.823 1.8.777.766 1.52 1.564 2.306 2.323.271.261.266.412-.035.593 0 .139-.122.174-.209.236-2.41 1.63-4.78 3.319-7.18 4.965-.725.5-1.447 1-2.176 1.493-.156.106-.348.271-.434-.087-.045-1.576-.016-3.15-.017-4.727a19.378 19.378 0 0 1 .047-2.377c.017-.182.153-.271.287-.365 1.755-1.248 3.526-2.476 5.288-3.717a.716.716 0 0 1 .3-.137z" transform="translate(-168.96 -107.37) translate(168.96 111.449) translate(-255.751 -158.784)"/>
                <path fill="#ec6b33" d="M226.881 168.7c.144.24 0 .481 0 .721.012 2.217 0 4.436 0 6.654-.186.052-.306-.076-.433-.174q-2.954-2.037-5.893-4.082c-1.025-.716-2.054-1.428-3.09-2.127a1.105 1.105 0 0 1-.433-.4c-.278-.16-.283-.3-.04-.539 1.31-1.3 2.607-2.626 3.9-3.941a3.279 3.279 0 0 1 .255-.21 3.4 3.4 0 0 1 .966.6c1.39.98 2.8 1.95 4.188 2.937.214.174.485.282.58.561z" transform="translate(-168.96 -107.37) translate(168.96 111.449) translate(-208.502 -158.743)"/>
                <path fill="#00b463" d="M210.021 191.65l4.892 3.362 4.732 3.276c.073.045.148.089.224.127.174.045.261-.1.374-.174q4.655-3.216 9.307-6.438c.07-.049.148-.085.222-.129l1.712 1.163a15.726 15.726 0 0 1-1.7 1.244q-4.8 3.383-9.615 6.737a1.618 1.618 0 0 1-.3.13c-1.067-.737-2.136-1.468-3.2-2.21l-4.186-2.938-4.061-2.853a.478.478 0 0 1-.092-.113z" transform="translate(-168.96 -107.37) translate(168.96 111.449) translate(-201.489 -181.084)"/>
                <path fill="#fdca0e" d="M247.464 162.739q-1.889-1.34-3.781-2.678c-.655-.466-1.3-.938-1.953-1.408l1.642-1.263 3.672 2.567c.13.092.268.174.4.259.153.123.221-.043.306-.1 1.163-.81 2.32-1.626 3.475-2.433.13-.092.268-.174.4-.261l1.637 1.241c-.568.5-1.216.881-1.826 1.319-1.253.9-2.523 1.776-3.786 2.662a1.969 1.969 0 0 1-.186.095z" transform="translate(-168.96 -107.37) translate(168.96 111.449) translate(-229.085 -152.777)"/>
            </g>
        </g>
        <text fill="#fff" font-family="SFProDisplay-Medium, SF Pro Display" font-size="33px" font-weight="500" transform="translate(-168.96 -107.37) translate(215.233 138.37)">
            <tspan x="0" y="0">P</tspan><tspan y="0" letter-spacing="-0.02em">r</tspan><tspan y="0" letter-spacing="-0.01em">o</tspan><tspan y="0">ys</tspan><tspan y="0" font-family="SFProDisplay-Light, SF Pro Display" font-weight="300" letter-spacing="-0.04em">P</tspan><tspan y="0" font-family="SFProDisplay-Light, SF Pro Display" font-weight="300">anel</tspan>
        </text>
    </g>
</svg>
